<svg xmlns="http://www.w3.org/2000/svg" width="213.292" height="104.205" viewBox="0 0 213.292 104.205">
    <defs>
        <style>
            .cls-3{fill:#61af32}
        </style>
    </defs>
    <g id="Group_2" data-name="Group 2" transform="translate(-136.766 -243.436)">
        <text id="P_antOnRent" fill="#61af32" data-name="P antOnRent" font-family="ProximaNova-Bold, Proxima Nova" font-size="36px" font-weight="700" transform="translate(142.058 336.641)">
            <tspan x="0" y="0">P ant</tspan><tspan y="0" fill="#1a1818">OnRent</tspan>
        </text>
        <g id="Group_1" data-name="Group 1" transform="translate(136.766 243.436)">
            <path id="Path_1" d="M153.074 274.785c-11.784-6.03-11.984-5.35-16.308-8.422 0 0 1.163 16.053 7.042 24.9 5.124 7.839 14.857 8.359 18.693 11.538l.451-1.28c.726-11.793-11.673-20.438-11.673-20.438a16.8 16.8 0 0 1 7.136 5.289A78.955 78.955 0 0 0 149 275.224c10.39 4.171 17.055 17.472 17.055 17.472a24.339 24.339 0 0 0-12.981-17.911z" class="cls-3" data-name="Path 1" transform="translate(-136.766 -235.241)"/>
            <path id="Path_2" d="M173.1 263.032c-6.428-14.109-7.1-13.63-8.838-19.6 0 0-10.615 15.577-11.655 27.972-1 10.923 7.553 18.483 8.76 24.191l1.344-.847c9.248-10.294 4.162-27.248 4.162-27.248a19.674 19.674 0 0 1 2.7 10.045 92.386 92.386 0 0 0-.536-17.081c6.5 11.389 2.938 28.445 2.938 28.445a28.509 28.509 0 0 0 1.125-25.877z" class="cls-3" data-name="Path 2" transform="translate(-131.133 -243.436)"/>
            <path id="Path_3" d="M215.391 271.17a39.916 39.916 0 0 0-33.507 13.892s20.73-12.866 38.83-9.776c0 0-1.454.308-3.854.942-14.265 1.047-27.058 7.371-35.885 13.041l.909-4.207-.909 4.207a91.253 91.253 0 0 0-12.394 9.4 90.03 90.03 0 0 0 3.468-15.214l1.571-.99-1.571.99c1.858-13.716-.569-21.985-.569-21.985 1.049 7.679-.111 16.246-1.746 23.444l-1.831 1.154 1.831-1.154a113.065 113.065 0 0 1-4.961 16.189 57.257 57.257 0 0 0-2.97-5.913l.262-.747-.262.747c-6.335-10.971-13.885-15.4-13.885-15.4 6.334 4.743 10.178 12.053 12.51 19.312l-.276.783.276-.783c3.837 11.944 2.637 32.189 2.637 32.189h4.421a83.98 83.98 0 0 1 2.965-26.157 40.379 40.379 0 0 1 9.446-10.884l-.012.057.012-.057a87.186 87.186 0 0 1 20.838-12.29 25.728 25.728 0 0 1 11.76-.455s-24.744 1.438-33.851 18.54l-.471 2.176c8.089-1.15 22.136 6.479 36.027-.077 15.806-7.311 31.21-28.744 31.21-28.744-8.68.581-8.376-.54-30.019-2.23z" class="cls-3" data-name="Path 3" transform="translate(-132.78 -236.989)"/>
        </g>
    </g>
</svg>
